<?xml version="1.0" encoding="UTF-8"?>
<!DOCTYPE svg PUBLIC "-//W3C//DTD SVG 1.1//EN" "http://www.w3.org/Graphics/SVG/1.1/DTD/svg11.dtd">
<svg xmlns="http://www.w3.org/2000/svg" xmlns:xlink="http://www.w3.org/1999/xlink" version="1.1" width="732px" height="416px" viewBox="-0.5 -0.5 732 416" style="background-color: rgb(255, 255, 255);"><defs><clipPath id="mx-clip-304-121-152-26-0"><rect x="304" y="121" width="152" height="26"/></clipPath><clipPath id="mx-clip-304-147-152-26-0"><rect x="304" y="147" width="152" height="26"/></clipPath><clipPath id="mx-clip-304-173-152-26-0"><rect x="304" y="173" width="152" height="26"/></clipPath><clipPath id="mx-clip-304-199-152-26-0"><rect x="304" y="199" width="152" height="26"/></clipPath><clipPath id="mx-clip-304-225-152-26-0"><rect x="304" y="225" width="152" height="26"/></clipPath><clipPath id="mx-clip-304-251-152-26-0"><rect x="304" y="251" width="152" height="26"/></clipPath><clipPath id="mx-clip-304-277-152-26-0"><rect x="304" y="277" width="152" height="26"/></clipPath><clipPath id="mx-clip-304-311-152-26-0"><rect x="304" y="311" width="152" height="26"/></clipPath><clipPath id="mx-clip-4-31-152-26-0"><rect x="4" y="31" width="152" height="26"/></clipPath><clipPath id="mx-clip-4-57-152-26-0"><rect x="4" y="57" width="152" height="26"/></clipPath><clipPath id="mx-clip-4-83-152-26-0"><rect x="4" y="83" width="152" height="26"/></clipPath><clipPath id="mx-clip-4-109-152-26-0"><rect x="4" y="109" width="152" height="26"/></clipPath><clipPath id="mx-clip-4-135-152-26-0"><rect x="4" y="135" width="152" height="26"/></clipPath><clipPath id="mx-clip-4-161-152-26-0"><rect x="4" y="161" width="152" height="26"/></clipPath><clipPath id="mx-clip-4-187-152-26-0"><rect x="4" y="187" width="152" height="26"/></clipPath><clipPath id="mx-clip-4-221-152-26-0"><rect x="4" y="221" width="152" height="26"/></clipPath><clipPath id="mx-clip-4-247-152-26-0"><rect x="4" y="247" width="152" height="26"/></clipPath><clipPath id="mx-clip-4-273-152-26-0"><rect x="4" y="273" width="152" height="26"/></clipPath><clipPath id="mx-clip-4-299-152-26-0"><rect x="4" y="299" width="152" height="26"/></clipPath><clipPath id="mx-clip-4-325-152-26-0"><rect x="4" y="325" width="152" height="26"/></clipPath><clipPath id="mx-clip-574-91-152-26-0"><rect x="574" y="91" width="152" height="26"/></clipPath><clipPath id="mx-clip-574-117-152-26-0"><rect x="574" y="117" width="152" height="26"/></clipPath><clipPath id="mx-clip-574-143-152-26-0"><rect x="574" y="143" width="152" height="26"/></clipPath><clipPath id="mx-clip-574-169-152-26-0"><rect x="574" y="169" width="152" height="26"/></clipPath><clipPath id="mx-clip-574-195-152-26-0"><rect x="574" y="195" width="152" height="26"/></clipPath><clipPath id="mx-clip-574-221-152-26-0"><rect x="574" y="221" width="152" height="26"/></clipPath><clipPath id="mx-clip-574-247-152-28-0"><rect x="574" y="247" width="152" height="28"/></clipPath><clipPath id="mx-clip-574-275-152-28-0"><rect x="574" y="275" width="152" height="28"/></clipPath><clipPath id="mx-clip-574-303-152-28-0"><rect x="574" y="303" width="152" height="28"/></clipPath><clipPath id="mx-clip-574-339-152-26-0"><rect x="574" y="339" width="152" height="26"/></clipPath><clipPath id="mx-clip-574-365-152-26-0"><rect x="574" y="365" width="152" height="26"/></clipPath><clipPath id="mx-clip-574-391-152-26-0"><rect x="574" y="391" width="152" height="26"/></clipPath></defs><g><path d="M 300 116 L 300 90 L 460 90 L 460 116" fill="rgb(255, 255, 255)" stroke="rgb(0, 0, 0)" stroke-miterlimit="10" pointer-events="all"/><path d="M 300 116 L 300 332 L 460 332 L 460 116" fill="none" stroke="rgb(0, 0, 0)" stroke-miterlimit="10" pointer-events="none"/><path d="M 300 116 L 460 116" fill="none" stroke="rgb(0, 0, 0)" stroke-miterlimit="10" pointer-events="none"/><g fill="rgb(0, 0, 0)" font-family="Helvetica" pointer-events="none" text-anchor="middle" font-size="12px"><text x="379.5" y="107.5">Exam</text></g><g fill="rgb(0, 0, 0)" font-family="Helvetica" pointer-events="none" clip-path="url(#mx-clip-304-121-152-26-0)" font-size="12px"><text x="305.5" y="133.5">id</text></g><g fill="rgb(0, 0, 0)" font-family="Helvetica" pointer-events="none" clip-path="url(#mx-clip-304-147-152-26-0)" font-size="12px"><text x="305.5" y="159.5">id</text></g><g fill="rgb(0, 0, 0)" font-family="Helvetica" pointer-events="none" clip-path="url(#mx-clip-304-173-152-26-0)" font-size="12px"><text x="305.5" y="185.5">name</text></g><g fill="rgb(0, 0, 0)" font-family="Helvetica" pointer-events="none" clip-path="url(#mx-clip-304-199-152-26-0)" font-size="12px"><text x="305.5" y="211.5">description</text></g><g fill="rgb(0, 0, 0)" font-family="Helvetica" pointer-events="none" clip-path="url(#mx-clip-304-225-152-26-0)" font-size="12px"><text x="305.5" y="237.5">created_at</text></g><g fill="rgb(0, 0, 0)" font-family="Helvetica" pointer-events="none" clip-path="url(#mx-clip-304-251-152-26-0)" font-size="12px"><text x="305.5" y="263.5">updated_at</text></g><g fill="rgb(0, 0, 0)" font-family="Helvetica" pointer-events="none" clip-path="url(#mx-clip-304-277-152-26-0)" font-size="12px"><text x="305.5" y="289.5">questions</text></g><path d="M 300 302 L 460 302" fill="none" stroke="rgb(0, 0, 0)" stroke-miterlimit="10" pointer-events="none"/><g fill="rgb(0, 0, 0)" font-family="Helvetica" pointer-events="none" clip-path="url(#mx-clip-304-311-152-26-0)" font-size="12px"><text x="305.5" y="323.5">BeforeDelete</text></g><path d="M 160 143 L 297.76 143.33" fill="none" stroke="rgb(0, 0, 0)" stroke-miterlimit="10" pointer-events="none"/><path d="M 291.87 146.81 L 298.88 143.33 L 291.89 139.81" fill="none" stroke="rgb(0, 0, 0)" stroke-miterlimit="10" pointer-events="none"/><g fill="rgb(0, 0, 0)" font-family="Helvetica" pointer-events="none" text-anchor="end" font-size="12px"><text x="291.28" y="142.94">n</text></g><path d="M 0 26 L 0 0 L 160 0 L 160 26" fill="rgb(255, 255, 255)" stroke="rgb(0, 0, 0)" stroke-miterlimit="10" pointer-events="none"/><path d="M 0 26 L 0 346 L 160 346 L 160 26" fill="none" stroke="rgb(0, 0, 0)" stroke-miterlimit="10" pointer-events="none"/><path d="M 0 26 L 160 26" fill="none" stroke="rgb(0, 0, 0)" stroke-miterlimit="10" pointer-events="none"/><g fill="rgb(0, 0, 0)" font-family="Helvetica" font-style="italic" pointer-events="none" text-anchor="middle" font-size="12px"><text x="79.5" y="17.5">User</text></g><g fill="rgb(0, 0, 0)" font-family="Helvetica" pointer-events="none" clip-path="url(#mx-clip-4-31-152-26-0)" font-size="12px"><text x="5.5" y="43.5">id</text></g><g fill="rgb(0, 0, 0)" font-family="Helvetica" pointer-events="none" clip-path="url(#mx-clip-4-57-152-26-0)" font-size="12px"><text x="5.5" y="69.5">username</text></g><g fill="rgb(0, 0, 0)" font-family="Helvetica" pointer-events="none" clip-path="url(#mx-clip-4-83-152-26-0)" font-size="12px"><text x="5.5" y="95.5">buaa_id</text></g><g fill="rgb(0, 0, 0)" font-family="Helvetica" pointer-events="none" clip-path="url(#mx-clip-4-109-152-26-0)" font-size="12px"><text x="5.5" y="121.5">password</text></g><g fill="rgb(0, 0, 0)" font-family="Helvetica" pointer-events="none" clip-path="url(#mx-clip-4-135-152-26-0)" font-size="12px"><text x="5.5" y="147.5">role</text></g><g fill="rgb(0, 0, 0)" font-family="Helvetica" pointer-events="none" clip-path="url(#mx-clip-4-161-152-26-0)" font-size="12px"><text x="5.5" y="173.5">created_at</text></g><g fill="rgb(0, 0, 0)" font-family="Helvetica" pointer-events="none" clip-path="url(#mx-clip-4-187-152-26-0)" font-size="12px"><text x="5.5" y="199.5">uodated_at</text></g><path d="M 0 212 L 160 212" fill="none" stroke="rgb(0, 0, 0)" stroke-miterlimit="10" pointer-events="none"/><g fill="rgb(0, 0, 0)" font-family="Helvetica" pointer-events="none" clip-path="url(#mx-clip-4-221-152-26-0)" font-size="12px"><text x="5.5" y="233.5">BeforeCreate</text></g><g fill="rgb(0, 0, 0)" font-family="Helvetica" pointer-events="none" clip-path="url(#mx-clip-4-247-152-26-0)" font-size="12px"><text x="5.5" y="259.5">BeforeUpdate</text></g><g fill="rgb(0, 0, 0)" font-family="Helvetica" pointer-events="none" clip-path="url(#mx-clip-4-273-152-26-0)" font-size="12px"><text x="5.5" y="285.5">CheckPassword</text></g><g fill="rgb(0, 0, 0)" font-family="Helvetica" pointer-events="none" clip-path="url(#mx-clip-4-299-152-26-0)" font-size="12px"><text x="5.5" y="311.5">BeforeDelete</text></g><g fill="rgb(0, 0, 0)" font-family="Helvetica" pointer-events="none" clip-path="url(#mx-clip-4-325-152-26-0)" font-size="12px"><text x="5.5" y="337.5">ResetPasswordForm</text></g><g fill="rgb(0, 0, 0)" font-family="Helvetica" pointer-events="none" font-size="12px"><text x="164.5" y="141.94">1</text></g><path d="M 570 86 L 570 60 L 730 60 L 730 86" fill="rgb(255, 255, 255)" stroke="rgb(0, 0, 0)" stroke-miterlimit="10" pointer-events="none"/><path d="M 570 86 L 570 412 L 730 412 L 730 86" fill="none" stroke="rgb(0, 0, 0)" stroke-miterlimit="10" pointer-events="none"/><path d="M 570 86 L 730 86" fill="none" stroke="rgb(0, 0, 0)" stroke-miterlimit="10" pointer-events="none"/><g fill="rgb(0, 0, 0)" font-family="Helvetica" pointer-events="none" text-anchor="middle" font-size="12px"><text x="649.5" y="77.5">Question</text></g><g fill="rgb(0, 0, 0)" font-family="Helvetica" pointer-events="none" clip-path="url(#mx-clip-574-91-152-26-0)" font-size="12px"><text x="575.5" y="103.5">id</text></g><g fill="rgb(0, 0, 0)" font-family="Helvetica" pointer-events="none" clip-path="url(#mx-clip-574-117-152-26-0)" font-size="12px"><text x="575.5" y="129.5">title</text></g><g fill="rgb(0, 0, 0)" font-family="Helvetica" pointer-events="none" clip-path="url(#mx-clip-574-143-152-26-0)" font-size="12px"><text x="575.5" y="155.5">content</text></g><g fill="rgb(0, 0, 0)" font-family="Helvetica" pointer-events="none" clip-path="url(#mx-clip-574-169-152-26-0)" font-size="12px"><text x="575.5" y="181.5">answer</text></g><g fill="rgb(0, 0, 0)" font-family="Helvetica" pointer-events="none" clip-path="url(#mx-clip-574-195-152-26-0)" font-size="12px"><text x="575.5" y="207.5">type</text></g><g fill="rgb(0, 0, 0)" font-family="Helvetica" pointer-events="none" clip-path="url(#mx-clip-574-221-152-26-0)" font-size="12px"><text x="575.5" y="233.5">data</text></g><g fill="rgb(0, 0, 0)" font-family="Helvetica" pointer-events="none" clip-path="url(#mx-clip-574-247-152-28-0)" font-size="12px"><text x="575.5" y="259.5">tags</text></g><g fill="rgb(0, 0, 0)" font-family="Helvetica" pointer-events="none" clip-path="url(#mx-clip-574-275-152-28-0)" font-size="12px"><text x="575.5" y="287.5">created_at</text></g><g fill="rgb(0, 0, 0)" font-family="Helvetica" pointer-events="none" clip-path="url(#mx-clip-574-303-152-28-0)" font-size="12px"><text x="575.5" y="315.5">updated_at</text></g><path d="M 570 330 L 730 330" fill="none" stroke="rgb(0, 0, 0)" stroke-miterlimit="10" pointer-events="none"/><g fill="rgb(0, 0, 0)" font-family="Helvetica" pointer-events="none" clip-path="url(#mx-clip-574-339-152-26-0)" font-size="12px"><text x="575.5" y="351.5">BeforeSave</text></g><g fill="rgb(0, 0, 0)" font-family="Helvetica" pointer-events="none" clip-path="url(#mx-clip-574-365-152-26-0)" font-size="12px"><text x="575.5" y="377.5">AfterFind</text></g><g fill="rgb(0, 0, 0)" font-family="Helvetica" pointer-events="none" clip-path="url(#mx-clip-574-391-152-26-0)" font-size="12px"><text x="575.5" y="403.5">SubmitFrom</text></g><path d="M 460 285 L 515 285 L 515 256 L 563.63 256" fill="none" stroke="rgb(0, 0, 0)" stroke-miterlimit="10" pointer-events="none"/><path d="M 568.88 256 L 561.88 259.5 L 563.63 256 L 561.88 252.5 Z" fill="rgb(0, 0, 0)" stroke="rgb(0, 0, 0)" stroke-miterlimit="10" pointer-events="none"/><g fill="rgb(0, 0, 0)" font-family="Helvetica" pointer-events="none" font-size="12px"><text x="464.5" y="254.61">1</text></g><g fill="rgb(0, 0, 0)" font-family="Helvetica" pointer-events="none" text-anchor="end" font-size="12px"><text x="561.28" y="237.94">n</text></g></g></svg>