<?xml version="1.0" encoding="UTF-8"?>
<!DOCTYPE svg PUBLIC "-//W3C//DTD SVG 1.1//EN" "http://www.w3.org/Graphics/SVG/1.1/DTD/svg11.dtd">
<svg xmlns="http://www.w3.org/2000/svg" xmlns:xlink="http://www.w3.org/1999/xlink" version="1.1" width="721px" height="350px" viewBox="-0.5 -0.5 721 350" style="background-color: rgb(255, 255, 255);"><defs><clipPath id="mx-clip-4-31-152-26-0"><rect x="4" y="31" width="152" height="26"/></clipPath><clipPath id="mx-clip-4-57-152-26-0"><rect x="4" y="57" width="152" height="26"/></clipPath><clipPath id="mx-clip-4-83-152-26-0"><rect x="4" y="83" width="152" height="26"/></clipPath><clipPath id="mx-clip-4-109-152-26-0"><rect x="4" y="109" width="152" height="26"/></clipPath><clipPath id="mx-clip-4-135-152-26-0"><rect x="4" y="135" width="152" height="26"/></clipPath><clipPath id="mx-clip-4-161-152-26-0"><rect x="4" y="161" width="152" height="26"/></clipPath><clipPath id="mx-clip-4-187-152-26-0"><rect x="4" y="187" width="152" height="26"/></clipPath><clipPath id="mx-clip-4-221-152-26-0"><rect x="4" y="221" width="152" height="26"/></clipPath><clipPath id="mx-clip-4-247-152-26-0"><rect x="4" y="247" width="152" height="26"/></clipPath><clipPath id="mx-clip-4-273-152-26-0"><rect x="4" y="273" width="152" height="26"/></clipPath><clipPath id="mx-clip-4-299-152-26-0"><rect x="4" y="299" width="152" height="26"/></clipPath><clipPath id="mx-clip-4-325-152-26-0"><rect x="4" y="325" width="152" height="26"/></clipPath><clipPath id="mx-clip-264-94-152-26-0"><rect x="264" y="94" width="152" height="26"/></clipPath><clipPath id="mx-clip-264-120-152-26-0"><rect x="264" y="120" width="152" height="26"/></clipPath><clipPath id="mx-clip-264-146-152-26-0"><rect x="264" y="146" width="152" height="26"/></clipPath><clipPath id="mx-clip-264-172-152-26-0"><rect x="264" y="172" width="152" height="26"/></clipPath><clipPath id="mx-clip-264-198-152-26-0"><rect x="264" y="198" width="152" height="26"/></clipPath><clipPath id="mx-clip-264-224-152-26-0"><rect x="264" y="224" width="152" height="26"/></clipPath><clipPath id="mx-clip-264-258-152-26-0"><rect x="264" y="258" width="152" height="26"/></clipPath><clipPath id="mx-clip-564-94-152-26-0"><rect x="564" y="94" width="152" height="26"/></clipPath><clipPath id="mx-clip-564-120-152-26-0"><rect x="564" y="120" width="152" height="26"/></clipPath><clipPath id="mx-clip-564-146-152-26-0"><rect x="564" y="146" width="152" height="26"/></clipPath><clipPath id="mx-clip-564-172-152-26-0"><rect x="564" y="172" width="152" height="26"/></clipPath><clipPath id="mx-clip-564-198-152-26-0"><rect x="564" y="198" width="152" height="26"/></clipPath><clipPath id="mx-clip-564-224-152-26-0"><rect x="564" y="224" width="152" height="26"/></clipPath></defs><g><path d="M 0 26 L 0 0 L 160 0 L 160 26" fill="rgb(255, 255, 255)" stroke="rgb(0, 0, 0)" stroke-miterlimit="10" pointer-events="all"/><path d="M 0 26 L 0 346 L 160 346 L 160 26" fill="none" stroke="rgb(0, 0, 0)" stroke-miterlimit="10" pointer-events="none"/><path d="M 0 26 L 160 26" fill="none" stroke="rgb(0, 0, 0)" stroke-miterlimit="10" pointer-events="none"/><g fill="rgb(0, 0, 0)" font-family="Helvetica" font-style="italic" pointer-events="none" text-anchor="middle" font-size="12px"><text x="79.5" y="17.5">User</text></g><g fill="rgb(0, 0, 0)" font-family="Helvetica" pointer-events="none" clip-path="url(#mx-clip-4-31-152-26-0)" font-size="12px"><text x="5.5" y="43.5">id</text></g><g fill="rgb(0, 0, 0)" font-family="Helvetica" pointer-events="none" clip-path="url(#mx-clip-4-57-152-26-0)" font-size="12px"><text x="5.5" y="69.5">username</text></g><g fill="rgb(0, 0, 0)" font-family="Helvetica" pointer-events="none" clip-path="url(#mx-clip-4-83-152-26-0)" font-size="12px"><text x="5.5" y="95.5">buaa_id</text></g><g fill="rgb(0, 0, 0)" font-family="Helvetica" pointer-events="none" clip-path="url(#mx-clip-4-109-152-26-0)" font-size="12px"><text x="5.5" y="121.5">password</text></g><g fill="rgb(0, 0, 0)" font-family="Helvetica" pointer-events="none" clip-path="url(#mx-clip-4-135-152-26-0)" font-size="12px"><text x="5.5" y="147.5">role</text></g><g fill="rgb(0, 0, 0)" font-family="Helvetica" pointer-events="none" clip-path="url(#mx-clip-4-161-152-26-0)" font-size="12px"><text x="5.5" y="173.5">created_at</text></g><g fill="rgb(0, 0, 0)" font-family="Helvetica" pointer-events="none" clip-path="url(#mx-clip-4-187-152-26-0)" font-size="12px"><text x="5.5" y="199.5">uodated_at</text></g><path d="M 0 212 L 160 212" fill="none" stroke="rgb(0, 0, 0)" stroke-miterlimit="10" pointer-events="none"/><g fill="rgb(0, 0, 0)" font-family="Helvetica" pointer-events="none" clip-path="url(#mx-clip-4-221-152-26-0)" font-size="12px"><text x="5.5" y="233.5">BeforeCreate</text></g><g fill="rgb(0, 0, 0)" font-family="Helvetica" pointer-events="none" clip-path="url(#mx-clip-4-247-152-26-0)" font-size="12px"><text x="5.5" y="259.5">BeforeUpdate</text></g><g fill="rgb(0, 0, 0)" font-family="Helvetica" pointer-events="none" clip-path="url(#mx-clip-4-273-152-26-0)" font-size="12px"><text x="5.5" y="285.5">CheckPassword</text></g><g fill="rgb(0, 0, 0)" font-family="Helvetica" pointer-events="none" clip-path="url(#mx-clip-4-299-152-26-0)" font-size="12px"><text x="5.5" y="311.5">BeforeDelete</text></g><g fill="rgb(0, 0, 0)" font-family="Helvetica" pointer-events="none" clip-path="url(#mx-clip-4-325-152-26-0)" font-size="12px"><text x="5.5" y="337.5">ResetPasswordForm</text></g><path d="M 260 89 L 260 63 L 420 63 L 420 89" fill="rgb(255, 255, 255)" stroke="rgb(0, 0, 0)" stroke-miterlimit="10" pointer-events="none"/><path d="M 260 89 L 260 283 L 420 283 L 420 89" fill="none" stroke="rgb(0, 0, 0)" stroke-miterlimit="10" pointer-events="none"/><path d="M 260 89 L 420 89" fill="none" stroke="rgb(0, 0, 0)" stroke-miterlimit="10" pointer-events="none"/><g fill="rgb(0, 0, 0)" font-family="Helvetica" pointer-events="none" text-anchor="middle" font-size="12px"><text x="339.5" y="80.5">Post</text></g><g fill="rgb(0, 0, 0)" font-family="Helvetica" pointer-events="none" clip-path="url(#mx-clip-264-94-152-26-0)" font-size="12px"><text x="265.5" y="106.5">id</text></g><g fill="rgb(0, 0, 0)" font-family="Helvetica" pointer-events="none" clip-path="url(#mx-clip-264-120-152-26-0)" font-size="12px"><text x="265.5" y="132.5">title</text></g><g fill="rgb(0, 0, 0)" font-family="Helvetica" pointer-events="none" clip-path="url(#mx-clip-264-146-152-26-0)" font-size="12px"><text x="265.5" y="158.5">content</text></g><g fill="rgb(0, 0, 0)" font-family="Helvetica" pointer-events="none" clip-path="url(#mx-clip-264-172-152-26-0)" font-size="12px"><text x="265.5" y="184.5">user_id</text></g><g fill="rgb(0, 0, 0)" font-family="Helvetica" pointer-events="none" clip-path="url(#mx-clip-264-198-152-26-0)" font-size="12px"><text x="265.5" y="210.5">created_at</text></g><g fill="rgb(0, 0, 0)" font-family="Helvetica" pointer-events="none" clip-path="url(#mx-clip-264-224-152-26-0)" font-size="12px"><text x="265.5" y="236.5">updated_at</text></g><path d="M 260 249 L 420 249" fill="none" stroke="rgb(0, 0, 0)" stroke-miterlimit="10" pointer-events="none"/><g fill="rgb(0, 0, 0)" font-family="Helvetica" pointer-events="none" clip-path="url(#mx-clip-264-258-152-26-0)" font-size="12px"><text x="265.5" y="270.5">BeforeDelete</text></g><path d="M 160 173.33 L 210 173.33 L 257.76 173.33" fill="none" stroke="rgb(0, 0, 0)" stroke-miterlimit="10" pointer-events="none"/><path d="M 251.88 176.83 L 258.88 173.33 L 251.88 169.83" fill="none" stroke="rgb(0, 0, 0)" stroke-miterlimit="10" pointer-events="none"/><g fill="rgb(0, 0, 0)" font-family="Helvetica" pointer-events="none" font-size="12px"><text x="161.5" y="172.67">1</text></g><g fill="rgb(0, 0, 0)" font-family="Helvetica" pointer-events="none" text-anchor="end" font-size="12px"><text x="251.33" y="172.67">n</text></g><path d="M 560 89.22 L 560 63.22 L 720 63.22 L 720 89.22" fill="rgb(255, 255, 255)" stroke="rgb(0, 0, 0)" stroke-miterlimit="10" pointer-events="none"/><path d="M 560 89.22 L 560 253.22 L 720 253.22 L 720 89.22" fill="none" stroke="rgb(0, 0, 0)" stroke-miterlimit="10" pointer-events="none"/><path d="M 560 89.22 L 720 89.22" fill="none" stroke="rgb(0, 0, 0)" stroke-miterlimit="10" pointer-events="none"/><g fill="rgb(0, 0, 0)" font-family="Helvetica" pointer-events="none" text-anchor="middle" font-size="12px"><text x="639.5" y="80.72">Comment</text></g><g fill="rgb(0, 0, 0)" font-family="Helvetica" pointer-events="none" clip-path="url(#mx-clip-564-94-152-26-0)" font-size="12px"><text x="565.5" y="106.72">id</text></g><g fill="rgb(0, 0, 0)" font-family="Helvetica" pointer-events="none" clip-path="url(#mx-clip-564-120-152-26-0)" font-size="12px"><text x="565.5" y="132.72">user_id</text></g><g fill="rgb(0, 0, 0)" font-family="Helvetica" pointer-events="none" clip-path="url(#mx-clip-564-146-152-26-0)" font-size="12px"><text x="565.5" y="158.72">poster_id</text></g><g fill="rgb(0, 0, 0)" font-family="Helvetica" pointer-events="none" clip-path="url(#mx-clip-564-172-152-26-0)" font-size="12px"><text x="565.5" y="184.72">content</text></g><g fill="rgb(0, 0, 0)" font-family="Helvetica" pointer-events="none" clip-path="url(#mx-clip-564-198-152-26-0)" font-size="12px"><text x="565.5" y="210.72">created_at</text></g><g fill="rgb(0, 0, 0)" font-family="Helvetica" pointer-events="none" clip-path="url(#mx-clip-564-224-152-26-0)" font-size="12px"><text x="565.5" y="236.72">updated_at</text></g><path d="M 560 249.22 L 720 249.22" fill="none" stroke="rgb(0, 0, 0)" stroke-miterlimit="10" pointer-events="none"/><g fill="rgb(0, 0, 0)" font-family="Helvetica" pointer-events="none" text-anchor="end" font-size="12px"><text x="548.33" y="168.56">n</text></g><path d="M 420 180 L 490 180 L 553.63 180.2" fill="none" stroke="rgb(0, 0, 0)" stroke-miterlimit="10" pointer-events="none"/><path d="M 558.88 180.22 L 551.87 183.69 L 553.63 180.2 L 551.89 176.69 Z" fill="rgb(0, 0, 0)" stroke="rgb(0, 0, 0)" stroke-miterlimit="10" pointer-events="none"/><g fill="rgb(0, 0, 0)" font-family="Helvetica" pointer-events="none" font-size="12px"><text x="424.5" y="173.34">1</text></g><path d="M 160 281 L 160 310 L 640 310 L 640 259.59" fill="none" stroke="rgb(0, 0, 0)" stroke-miterlimit="10" pointer-events="none"/><path d="M 640 254.34 L 643.5 261.34 L 640 259.59 L 636.5 261.34 Z" fill="rgb(0, 0, 0)" stroke="rgb(0, 0, 0)" stroke-miterlimit="10" pointer-events="none"/><g fill="rgb(0, 0, 0)" font-family="Helvetica" pointer-events="none" font-size="12px"><text x="161.5" y="305.34">1</text></g><g fill="rgb(0, 0, 0)" font-family="Helvetica" pointer-events="none" text-anchor="end" font-size="12px"><text x="632.33" y="302.56">n</text></g></g></svg>