<svg xmlns="http://www.w3.org/2000/svg" xmlns:xlink="http://www.w3.org/1999/xlink" width="400" height="300" viewBox="0 0 400 300" fill="none"><defs><rect id="path_0" x="0" y="0" width="400" height="300" /></defs><g opacity="1" transform="translate(0 0)  rotate(0 200 150)"><rect fill="#FF8D1A" opacity="1" transform="translate(0 0)  rotate(0 200 150)" x="0" y="0" width="400" height="300" /><mask id="bg-mask-0" fill="white"><use xlink:href="#path_0"></use></mask><g mask="url(#bg-mask-0)" ><path  id="直线 1" style="stroke:#E5E5E5; stroke-width:15; stroke-opacity:1; stroke-dasharray:0 0" transform="translate(263 206)  rotate(0 24.748737341529154 24.748737341529147)" d="M0,0L49.5,49.5 " /><path  id="圆形 1" style="stroke:#FFFFFF; stroke-width:10; stroke-opacity:1; stroke-dasharray:0 0" transform="translate(88 44)  rotate(0 100 100)" d="M100,0C44.77,0 0,44.77 0,100C0,155.23 44.77,200 100,200C155.23,200 200,155.23 200,100C200,44.77 155.23,0 100,0Z " /></g></g></svg>