<?xml version="1.0" standalone="no"?><?xml-stylesheet type="text/css" href="https://wps.processon.com/themes/default/wps/mind/icons/icons.css" ?><!DOCTYPE svg PUBLIC "-//W3C//DTD SVG 1.1//EN" "http://www.w3.org/Graphics/SVG/1.1/DTD/svg11.dtd"><svg id="SvgjsSvg1000" xmlns="http://www.w3.org/2000/svg" version="1.1" xmlns:xlink="http://www.w3.org/1999/xlink" xmlns:svgjs="http://svgjs.com/svgjs" width="586" height="310"><rect fill="url(#pattern_mark)" transform="translate(-25,-266)" width="1247" height="737" id="rect_mark" pointer-events="none"></rect><defs id="SvgjsDefs1001"><pattern patternUnits="userSpaceOnUse" id="pattern_mark" width="300" height="300"><text x="-50" y="150" fill="rgba(229,229,229,0.8)" font-size="18" transform="rotate(-45, 150, 150)"></text></pattern></defs><g id="SvgjsG1007" transform="translate(173,130)"><path id="SvgjsPath1008" d="M0 4Q0 0 4 0L96 0Q100 0 100 4L100 46Q100 50 96 50L4 50Q0 50 0 46Z " stroke="rgba(50,50,50,1)" stroke-width="2" fill-opacity="1" fill="#ffffff"></path><g id="SvgjsG1009"><text id="SvgjsText1010" font-family="微软雅黑" text-anchor="middle" font-size="16px" width="80px" fill="#323232" font-weight="400" align="middle" lineHeight="125%" font-style="" opacity="1" y="1" transform="rotate(0)"><tspan id="SvgjsTspan1011" dy="20" x="50"><tspan id="SvgjsTspan1012" style="text-decoration:;">登录</tspan></tspan><tspan id="SvgjsTspan1013" dy="20" x="50"><tspan id="SvgjsTspan1014" style="text-decoration:;">选择课程</tspan></tspan></text></g></g><g id="SvgjsG1015" transform="translate(25,130)"><path id="SvgjsPath1016" d="M0 0L120 0L120 50L0 50Z " stroke="rgba(50,50,50,1)" stroke-width="2" fill-opacity="1" fill="#ffffff"></path><g id="SvgjsG1017"><text id="SvgjsText1018" font-family="微软雅黑" text-anchor="middle" font-size="16px" width="100px" fill="#323232" font-weight="400" align="middle" lineHeight="125%" font-style="" opacity="1" y="11" transform="rotate(0)"><tspan id="SvgjsTspan1019" dy="20" x="60"><tspan id="SvgjsTspan1020" style="text-decoration:;">管理员</tspan></tspan></text></g></g><g id="SvgjsG1021"><path id="SvgjsPath1022" d="M146 155C156.2 155 161.8 155 172 155 " stroke="#323232" stroke-width="2" fill="none"></path></g><g id="SvgjsG1023" transform="translate(303,198)"><path id="SvgjsPath1024" d="M0 4Q0 0 4 0L96 0Q100 0 100 4L100 46Q100 50 96 50L4 50Q0 50 0 46Z " stroke="rgba(50,50,50,1)" stroke-width="2" fill-opacity="1" fill="#ffffff"></path><g id="SvgjsG1025"><text id="SvgjsText1026" font-family="微软雅黑" text-anchor="middle" font-size="16px" width="80px" fill="#323232" font-weight="400" align="middle" lineHeight="125%" font-style="" opacity="1" y="11" transform="rotate(0)"><tspan id="SvgjsTspan1027" dy="20" x="50"><tspan id="SvgjsTspan1028" style="text-decoration:;">课程管理</tspan></tspan></text></g></g><g id="SvgjsG1029" transform="translate(431,165)"><path id="SvgjsPath1030" d="M0 4Q0 0 4 0L126 0Q130 0 130 4L130 46Q130 50 126 50L4 50Q0 50 0 46Z " stroke="rgba(50,50,50,1)" stroke-width="2" fill-opacity="1" fill="#ffffff"></path><g id="SvgjsG1031"><text id="SvgjsText1032" font-family="微软雅黑" text-anchor="middle" font-size="16px" width="110px" fill="#323232" font-weight="400" align="middle" lineHeight="125%" font-style="" opacity="1" y="11" transform="rotate(0)"><tspan id="SvgjsTspan1033" dy="20" x="65"><tspan id="SvgjsTspan1034" style="text-decoration:;">课程成员管理</tspan></tspan></text></g></g><g id="SvgjsG1035" transform="translate(431,235)"><path id="SvgjsPath1036" d="M0 4Q0 0 4 0L126 0Q130 0 130 4L130 46Q130 50 126 50L4 50Q0 50 0 46Z " stroke="rgba(50,50,50,1)" stroke-width="2" fill-opacity="1" fill="#ffffff"></path><g id="SvgjsG1037"><text id="SvgjsText1038" font-family="微软雅黑" text-anchor="middle" font-size="16px" width="110px" fill="#323232" font-weight="400" align="middle" lineHeight="125%" font-style="" opacity="1" y="11" transform="rotate(0)"><tspan id="SvgjsTspan1039" dy="20" x="65"><tspan id="SvgjsTspan1040" style="text-decoration:;">课程信息管理</tspan></tspan></text></g></g><g id="SvgjsG1041"><path id="SvgjsPath1042" d="M403.84735347296106 222.46897072410195C420.31126800670586 223 413.68873199329414 190 430.15264652703894 190.53102927589805 " stroke="#323232" stroke-width="2" fill="none"></path></g><g id="SvgjsG1043"><path id="SvgjsPath1044" d="M403.84734199150677 223.53104759619958C421.5601724129923 223 412.4398275870077 260 430.15265800849323 259.46895240380036 " stroke="#323232" stroke-width="2" fill="none"></path></g><g id="SvgjsG1045" transform="translate(303,58)"><path id="SvgjsPath1046" d="M0 4Q0 0 4 0L96 0Q100 0 100 4L100 46Q100 50 96 50L4 50Q0 50 0 46Z " stroke="rgba(50,50,50,1)" stroke-width="2" fill-opacity="1" fill="#ffffff"></path><g id="SvgjsG1047"><text id="SvgjsText1048" font-family="微软雅黑" text-anchor="middle" font-size="16px" width="80px" fill="#323232" font-weight="400" align="middle" lineHeight="125%" font-style="" opacity="1" y="11" transform="rotate(0)"><tspan id="SvgjsTspan1049" dy="20" x="50"><tspan id="SvgjsTspan1050" style="text-decoration:;">用户管理</tspan></tspan></text></g></g><g id="SvgjsG1051" transform="translate(431,25)"><path id="SvgjsPath1052" d="M0 4Q0 0 4 0L126 0Q130 0 130 4L130 46Q130 50 126 50L4 50Q0 50 0 46Z " stroke="rgba(50,50,50,1)" stroke-width="2" fill-opacity="1" fill="#ffffff"></path><g id="SvgjsG1053"><text id="SvgjsText1054" font-family="微软雅黑" text-anchor="middle" font-size="16px" width="110px" fill="#323232" font-weight="400" align="middle" lineHeight="125%" font-style="" opacity="1" y="11" transform="rotate(0)"><tspan id="SvgjsTspan1055" dy="20" x="65"><tspan id="SvgjsTspan1056" style="text-decoration:;">添加用户</tspan></tspan></text></g></g><g id="SvgjsG1057" transform="translate(431,95)"><path id="SvgjsPath1058" d="M0 4Q0 0 4 0L126 0Q130 0 130 4L130 46Q130 50 126 50L4 50Q0 50 0 46Z " stroke="rgba(50,50,50,1)" stroke-width="2" fill-opacity="1" fill="#ffffff"></path><g id="SvgjsG1059"><text id="SvgjsText1060" font-family="微软雅黑" text-anchor="middle" font-size="16px" width="110px" fill="#323232" font-weight="400" align="middle" lineHeight="125%" font-style="" opacity="1" y="11" transform="rotate(0)"><tspan id="SvgjsTspan1061" dy="20" x="65"><tspan id="SvgjsTspan1062" style="text-decoration:;">用户信息管理</tspan></tspan></text></g></g><g id="SvgjsG1063"><path id="SvgjsPath1064" d="M403.84735347296106 82.46897072410195C420.31126800670586 83 413.68873199329414 50 430.15264652703894 50.53102927589805 " stroke="#323232" stroke-width="2" fill="none"></path></g><g id="SvgjsG1065"><path id="SvgjsPath1066" d="M403.84734199150677 83.53104759619964C421.5601724129923 83 412.4398275870077 120 430.15265800849323 119.46895240380036 " stroke="#323232" stroke-width="2" fill="none"></path></g><g id="SvgjsG1067"><path id="SvgjsPath1068" d="M273.9141614378788 154.59464970026488C304.2 155 271.8 83 302.0858385621212 83.40535029973512 " stroke="#323232" stroke-width="2" fill="none"></path></g><g id="SvgjsG1069"><path id="SvgjsPath1070" d="M273.9077664059933 155.4194760447868C302.7294466816993 155 273.2705533183007 223 302.0922335940067 222.5805239552132 " stroke="#323232" stroke-width="2" fill="none"></path></g></svg>