<?xml version="1.0" standalone="no"?><?xml-stylesheet type="text/css" href="https://wps.processon.com/themes/default/wps/mind/icons/icons.css" ?><!DOCTYPE svg PUBLIC "-//W3C//DTD SVG 1.1//EN" "http://www.w3.org/Graphics/SVG/1.1/DTD/svg11.dtd"><svg id="SvgjsSvg1000" xmlns="http://www.w3.org/2000/svg" version="1.1" xmlns:xlink="http://www.w3.org/1999/xlink" xmlns:svgjs="http://svgjs.com/svgjs" width="873" height="633.5"><rect fill="url(#pattern_mark)" transform="translate(-43,-196)" width="1247" height="893" id="rect_mark" pointer-events="none"></rect><defs id="SvgjsDefs1001"><pattern patternUnits="userSpaceOnUse" id="pattern_mark" width="300" height="300"><text x="-50" y="150" fill="rgba(229,229,229,0.8)" font-size="18" transform="rotate(-45, 150, 150)"></text></pattern></defs><g id="SvgjsG1007" transform="translate(155,327.5)"><path id="SvgjsPath1008" d="M0 4Q0 0 4 0L96 0Q100 0 100 4L100 46Q100 50 96 50L4 50Q0 50 0 46Z " stroke="rgba(50,50,50,1)" stroke-width="2" fill-opacity="1" fill="#ffffff"></path><g id="SvgjsG1009"><text id="SvgjsText1010" font-family="微软雅黑" text-anchor="middle" font-size="16px" width="80px" fill="#323232" font-weight="400" align="middle" lineHeight="125%" font-style="" opacity="1" y="1" transform="rotate(0)"><tspan id="SvgjsTspan1011" dy="20" x="50"><tspan id="SvgjsTspan1012" style="text-decoration:;">登录</tspan></tspan><tspan id="SvgjsTspan1013" dy="20" x="50"><tspan id="SvgjsTspan1014" style="text-decoration:;">选择课程</tspan></tspan></text></g></g><g id="SvgjsG1015" transform="translate(25,327.5)"><path id="SvgjsPath1016" d="M0 0L100 0L100 50L0 50Z " stroke="rgba(50,50,50,1)" stroke-width="2" fill-opacity="1" fill="#ffffff"></path><g id="SvgjsG1017"><text id="SvgjsText1018" font-family="微软雅黑" text-anchor="middle" font-size="16px" width="80px" fill="#323232" font-weight="400" align="middle" lineHeight="125%" font-style="" opacity="1" y="11" transform="rotate(0)"><tspan id="SvgjsTspan1019" dy="20" x="50"><tspan id="SvgjsTspan1020" style="text-decoration:;">教师/学生</tspan></tspan></text></g></g><g id="SvgjsG1021" transform="translate(317,453.5)"><path id="SvgjsPath1022" d="M0 4Q0 0 4 0L96 0Q100 0 100 4L100 46Q100 50 96 50L4 50Q0 50 0 46Z " stroke="rgba(50,50,50,1)" stroke-width="2" fill-opacity="1" fill="#ffffff"></path><g id="SvgjsG1023"><text id="SvgjsText1024" font-family="微软雅黑" text-anchor="middle" font-size="16px" width="80px" fill="#323232" font-weight="400" align="middle" lineHeight="125%" font-style="" opacity="1" y="11" transform="rotate(0)"><tspan id="SvgjsTspan1025" dy="20" x="50"><tspan id="SvgjsTspan1026" style="text-decoration:;">个人信息</tspan></tspan></text></g></g><g id="SvgjsG1027" transform="translate(447,488.5)"><path id="SvgjsPath1028" d="M0 4Q0 0 4 0L96 0Q100 0 100 4L100 46Q100 50 96 50L4 50Q0 50 0 46Z " stroke="rgba(50,50,50,1)" stroke-width="2" fill-opacity="1" fill="#ffffff"></path><g id="SvgjsG1029"><text id="SvgjsText1030" font-family="微软雅黑" text-anchor="middle" font-size="16px" width="80px" fill="#323232" font-weight="400" align="middle" lineHeight="125%" font-style="" opacity="1" y="11" transform="rotate(0)"><tspan id="SvgjsTspan1031" dy="20" x="50"><tspan id="SvgjsTspan1032" style="text-decoration:;">修改密码</tspan></tspan></text></g></g><g id="SvgjsG1033" transform="translate(447,418.5)"><path id="SvgjsPath1034" d="M0 4Q0 0 4 0L96 0Q100 0 100 4L100 46Q100 50 96 50L4 50Q0 50 0 46Z " stroke="rgba(50,50,50,1)" stroke-width="2" fill-opacity="1" fill="#ffffff"></path><g id="SvgjsG1035"><text id="SvgjsText1036" font-family="微软雅黑" text-anchor="middle" font-size="16px" width="80px" fill="#323232" font-weight="400" align="middle" lineHeight="125%" font-style="" opacity="1" y="11" transform="rotate(0)"><tspan id="SvgjsTspan1037" dy="20" x="50"><tspan id="SvgjsTspan1038" style="text-decoration:;">注销登录</tspan></tspan></text></g></g><g id="SvgjsG1039" transform="translate(618,482.5)"><path id="SvgjsPath1040" d="M0 4Q0 0 4 0L96 0Q100 0 100 4L100 46Q100 50 96 50L4 50Q0 50 0 46Z " stroke="rgba(50,50,50,1)" stroke-width="2" fill-opacity="1" fill="#ffffff"></path><g id="SvgjsG1041"><text id="SvgjsText1042" font-family="微软雅黑" text-anchor="middle" font-size="16px" width="80px" fill="#323232" font-weight="400" align="middle" lineHeight="125%" font-style="" opacity="1" y="11" transform="rotate(0)"><tspan id="SvgjsTspan1043" dy="20" x="50"><tspan id="SvgjsTspan1044" style="text-decoration:;">分享社区</tspan></tspan></text></g></g><g id="SvgjsG1045" transform="translate(748,517.5)"><path id="SvgjsPath1046" d="M0 4Q0 0 4 0L96 0Q100 0 100 4L100 46Q100 50 96 50L4 50Q0 50 0 46Z " stroke="rgba(50,50,50,1)" stroke-width="2" fill-opacity="1" fill="#ffffff"></path><g id="SvgjsG1047"><text id="SvgjsText1048" font-family="微软雅黑" text-anchor="middle" font-size="16px" width="80px" fill="#323232" font-weight="400" align="middle" lineHeight="125%" font-style="" opacity="1" y="11" transform="rotate(0)"><tspan id="SvgjsTspan1049" dy="20" x="50"><tspan id="SvgjsTspan1050" style="text-decoration:;">查看/回复</tspan></tspan></text></g></g><g id="SvgjsG1051" transform="translate(748,447.5)"><path id="SvgjsPath1052" d="M0 4Q0 0 4 0L96 0Q100 0 100 4L100 46Q100 50 96 50L4 50Q0 50 0 46Z " stroke="rgba(50,50,50,1)" stroke-width="2" fill-opacity="1" fill="#ffffff"></path><g id="SvgjsG1053"><text id="SvgjsText1054" font-family="微软雅黑" text-anchor="middle" font-size="16px" width="80px" fill="#323232" font-weight="400" align="middle" lineHeight="125%" font-style="" opacity="1" y="11" transform="rotate(0)"><tspan id="SvgjsTspan1055" dy="20" x="50"><tspan id="SvgjsTspan1056" style="text-decoration:;">发布分享</tspan></tspan></text></g></g><g id="SvgjsG1057" transform="translate(618,327.5)"><path id="SvgjsPath1058" d="M0 4Q0 0 4 0L96 0Q100 0 100 4L100 46Q100 50 96 50L4 50Q0 50 0 46Z " stroke="rgba(50,50,50,1)" stroke-width="2" fill-opacity="1" fill="#ffffff"></path><g id="SvgjsG1059"><text id="SvgjsText1060" font-family="微软雅黑" text-anchor="middle" font-size="16px" width="80px" fill="#323232" font-weight="400" align="middle" lineHeight="125%" font-style="" opacity="1" y="11" transform="rotate(0)"><tspan id="SvgjsTspan1061" dy="20" x="50"><tspan id="SvgjsTspan1062" style="text-decoration:;">习题社区</tspan></tspan></text></g></g><g id="SvgjsG1063" transform="translate(748,362.5)"><path id="SvgjsPath1064" d="M0 4Q0 0 4 0L96 0Q100 0 100 4L100 46Q100 50 96 50L4 50Q0 50 0 46Z " stroke="rgba(50,50,50,1)" stroke-width="2" fill-opacity="1" fill="#ffffff"></path><g id="SvgjsG1065"><text id="SvgjsText1066" font-family="微软雅黑" text-anchor="middle" font-size="16px" width="80px" fill="#323232" font-weight="400" align="middle" lineHeight="125%" font-style="" opacity="1" y="11" transform="rotate(0)"><tspan id="SvgjsTspan1067" dy="20" x="50"><tspan id="SvgjsTspan1068" style="text-decoration:;">查看题组</tspan></tspan></text></g></g><g id="SvgjsG1069" transform="translate(748,292.5)"><path id="SvgjsPath1070" d="M0 4Q0 0 4 0L96 0Q100 0 100 4L100 46Q100 50 96 50L4 50Q0 50 0 46Z " stroke="rgba(50,50,50,1)" stroke-width="2" fill-opacity="1" fill="#ffffff"></path><g id="SvgjsG1071"><text id="SvgjsText1072" font-family="微软雅黑" text-anchor="middle" font-size="16px" width="80px" fill="#323232" font-weight="400" align="middle" lineHeight="125%" font-style="" opacity="1" y="11" transform="rotate(0)"><tspan id="SvgjsTspan1073" dy="20" x="50"><tspan id="SvgjsTspan1074" style="text-decoration:;">查看练习</tspan></tspan></text></g></g><g id="SvgjsG1075"><path id="SvgjsPath1076" d="M718.8651943994263 506.9985634125819C736.4390889145858 507.5 729.5609110854142 472.5 747.1348056005737 473.0014365874181 " stroke="#323232" stroke-width="2" fill="none"></path></g><g id="SvgjsG1077"><path id="SvgjsPath1078" d="M718.8651943994263 508.0014365874181C736.4390889145858 507.5 729.5609110854142 542.5 747.1348056005737 541.9985634125819 " stroke="#323232" stroke-width="2" fill="none"></path></g><g id="SvgjsG1079"><path id="SvgjsPath1080" d="M417.86519439942623 477.9985634125819C435.4390889145858 478.5 428.5609110854142 443.5 446.1348056005737 444.0014365874181 " stroke="#323232" stroke-width="2" fill="none"></path></g><g id="SvgjsG1081"><path id="SvgjsPath1082" d="M417.86519439942623 479.0014365874181C435.4390889145858 478.5 428.5609110854142 513.5 446.1348056005737 512.9985634125819 " stroke="#323232" stroke-width="2" fill="none"></path></g><g id="SvgjsG1083"><path id="SvgjsPath1084" d="M718.8651943994263 351.9985634125819C736.4390889145858 352.5 729.5609110854142 317.5 747.1348056005737 318.0014365874181 " stroke="#323232" stroke-width="2" fill="none"></path></g><g id="SvgjsG1085"><path id="SvgjsPath1086" d="M718.8651943994263 353.0014365874181C736.4390889145858 352.5 729.5609110854142 387.5 747.1348056005737 386.9985634125819 " stroke="#323232" stroke-width="2" fill="none"></path></g><g id="SvgjsG1087"><path id="SvgjsPath1088" d="M255.99988088471582 352.5154342599385C723 355 540 506 617.0035619278435 507.4156722563033 " stroke="#323232" stroke-width="2" fill="none"></path></g><g id="SvgjsG1089"><path id="SvgjsPath1090" d="M256 352.5C400.20000000000005 352.5 472.79999999999995 352.5 617 352.5 " stroke="#323232" stroke-width="2" fill="none"></path></g><g id="SvgjsG1091"><path id="SvgjsPath1092" d="M255.9779859501769 352.708670748445C311.1711669809343 352.5 260.8288330190657 478.5 316.0220140498231 478.291329251555 " stroke="#323232" stroke-width="2" fill="none"></path></g><g id="SvgjsG1093"><path id="SvgjsPath1094" d="M126 352.5C137 352.5 143 352.5 154 352.5 " stroke="#323232" stroke-width="2" fill="none"></path></g><g id="SvgjsG1095" transform="translate(618,165)"><path id="SvgjsPath1096" d="M0 4Q0 0 4 0L96 0Q100 0 100 4L100 46Q100 50 96 50L4 50Q0 50 0 46Z " stroke="rgba(50,50,50,1)" stroke-width="2" fill-opacity="1" fill="#ffffff"></path><g id="SvgjsG1097"><text id="SvgjsText1098" font-family="微软雅黑" text-anchor="middle" font-size="16px" width="80px" fill="#323232" font-weight="400" align="middle" lineHeight="125%" font-style="" opacity="1" y="11" transform="rotate(0)"><tspan id="SvgjsTspan1099" dy="20" x="50"><tspan id="SvgjsTspan1100" style="text-decoration:;">仪表盘</tspan></tspan></text></g></g><g id="SvgjsG1101" transform="translate(748,207.5)"><path id="SvgjsPath1102" d="M0 4Q0 0 4 0L96 0Q100 0 100 4L100 46Q100 50 96 50L4 50Q0 50 0 46Z " stroke="rgba(50,50,50,1)" stroke-width="2" fill-opacity="1" fill="#ffffff"></path><g id="SvgjsG1103"><text id="SvgjsText1104" font-family="微软雅黑" text-anchor="middle" font-size="16px" width="80px" fill="#323232" font-weight="400" align="middle" lineHeight="125%" font-style="" opacity="1" y="11" transform="rotate(0)"><tspan id="SvgjsTspan1105" dy="20" x="50"><tspan id="SvgjsTspan1106" style="text-decoration:;">习题推荐</tspan></tspan></text></g></g><g id="SvgjsG1107" transform="translate(447,558.5)"><path id="SvgjsPath1108" d="M0 4Q0 0 4 0L96 0Q100 0 100 4L100 46Q100 50 96 50L4 50Q0 50 0 46Z " stroke="rgba(50,50,50,1)" stroke-width="2" fill-opacity="1" fill="#ffffff"></path><g id="SvgjsG1109"><text id="SvgjsText1110" font-family="微软雅黑" text-anchor="middle" font-size="16px" width="80px" fill="#323232" font-weight="400" align="middle" lineHeight="125%" font-style="" opacity="1" y="11" transform="rotate(0)"><tspan id="SvgjsTspan1111" dy="20" x="50"><tspan id="SvgjsTspan1112" style="text-decoration:;">切换课程</tspan></tspan></text></g></g><g id="SvgjsG1113"><path id="SvgjsPath1114" d="M417.9006280252128 478.93459079626837C443 477.5 417 584.5 446.0753282686652 583.119234732059 " stroke="#323232" stroke-width="2" fill="none"></path></g><g id="SvgjsG1115"><path id="SvgjsPath1116" d="M617.0018473310121 190.06075565317087C529 190 744 355 255.99998626763767 352.49475933820383 " stroke="#323232" stroke-width="2" fill="none"></path></g><g id="SvgjsG1117" transform="translate(748,133.75)"><path id="SvgjsPath1118" d="M0 4Q0 0 4 0L96 0Q100 0 100 4L100 46Q100 50 96 50L4 50Q0 50 0 46Z " stroke="rgba(50,50,50,1)" stroke-width="2" fill-opacity="1" fill="#ffffff"></path><g id="SvgjsG1119"><text id="SvgjsText1120" font-family="微软雅黑" text-anchor="middle" font-size="16px" width="80px" fill="#323232" font-weight="400" align="middle" lineHeight="125%" font-style="" opacity="1" y="11" transform="rotate(0)"><tspan id="SvgjsTspan1121" dy="20" x="50"><tspan id="SvgjsTspan1122" style="text-decoration:;">个人分析</tspan></tspan></text></g></g><g id="SvgjsG1123" transform="translate(453,95)"><path id="SvgjsPath1124" d="M0 4Q0 0 4 0L96 0Q100 0 100 4L100 46Q100 50 96 50L4 50Q0 50 0 46Z " stroke="rgba(50,50,50,1)" stroke-width="2" fill-opacity="1" fill="#ffffff"></path><g id="SvgjsG1125"><text id="SvgjsText1126" font-family="微软雅黑" text-anchor="middle" font-size="16px" width="80px" fill="#323232" font-weight="400" align="middle" lineHeight="125%" font-style="" opacity="1" y="11" transform="rotate(0)"><tspan id="SvgjsTspan1127" dy="20" x="50"><tspan id="SvgjsTspan1128" style="text-decoration:;">搜索专题</tspan></tspan></text></g></g><g id="SvgjsG1129"><path id="SvgjsPath1130" d="M718.8676690867513 190.49714218881132C738.8086520466848 190 727.1913479533152 232.5 747.1323309132487 232.00285781118868 " stroke="#323232" stroke-width="2" fill="none"></path></g><g id="SvgjsG1131"><path id="SvgjsPath1132" d="M718.8684374558866 189.5042012654178C735.3277234511635 190 730.6722765488365 158.75 747.1315625441134 159.2457987345822 " stroke="#323232" stroke-width="2" fill="none"></path></g><g id="SvgjsG1133" transform="translate(317,453.5)"><path id="SvgjsPath1134" d="M0 4Q0 0 4 0L96 0Q100 0 100 4L100 46Q100 50 96 50L4 50Q0 50 0 46Z " stroke="rgba(50,50,50,1)" stroke-width="2" fill-opacity="1" fill="#ffffff"></path><g id="SvgjsG1135"><text id="SvgjsText1136" font-family="微软雅黑" text-anchor="middle" font-size="16px" width="80px" fill="#323232" font-weight="400" align="middle" lineHeight="125%" font-style="" opacity="1" y="11" transform="rotate(0)"><tspan id="SvgjsTspan1137" dy="20" x="50"><tspan id="SvgjsTspan1138" style="text-decoration:;">个人中心</tspan></tspan></text></g></g><g id="SvgjsG1139" transform="translate(447,488.5)"><path id="SvgjsPath1140" d="M0 4Q0 0 4 0L96 0Q100 0 100 4L100 46Q100 50 96 50L4 50Q0 50 0 46Z " stroke="rgba(50,50,50,1)" stroke-width="2" fill-opacity="1" fill="#ffffff"></path><g id="SvgjsG1141"><text id="SvgjsText1142" font-family="微软雅黑" text-anchor="middle" font-size="16px" width="80px" fill="#323232" font-weight="400" align="middle" lineHeight="125%" font-style="" opacity="1" y="11" transform="rotate(0)"><tspan id="SvgjsTspan1143" dy="20" x="50"><tspan id="SvgjsTspan1144" style="text-decoration:;">修改密码</tspan></tspan></text></g></g><g id="SvgjsG1145" transform="translate(447,418.5)"><path id="SvgjsPath1146" d="M0 4Q0 0 4 0L96 0Q100 0 100 4L100 46Q100 50 96 50L4 50Q0 50 0 46Z " stroke="rgba(50,50,50,1)" stroke-width="2" fill-opacity="1" fill="#ffffff"></path><g id="SvgjsG1147"><text id="SvgjsText1148" font-family="微软雅黑" text-anchor="middle" font-size="16px" width="80px" fill="#323232" font-weight="400" align="middle" lineHeight="125%" font-style="" opacity="1" y="11" transform="rotate(0)"><tspan id="SvgjsTspan1149" dy="20" x="50"><tspan id="SvgjsTspan1150" style="text-decoration:;">注销登录</tspan></tspan></text></g></g><g id="SvgjsG1151"><path id="SvgjsPath1152" d="M417.86519439942623 477.9985634125819C435.4390889145858 478.5 428.5609110854142 443.5 446.1348056005737 444.0014365874181 " stroke="#323232" stroke-width="2" fill="none"></path></g><g id="SvgjsG1153"><path id="SvgjsPath1154" d="M417.86519439942623 479.0014365874181C435.4390889145858 478.5 428.5609110854142 513.5 446.1348056005737 512.9985634125819 " stroke="#323232" stroke-width="2" fill="none"></path></g><g id="SvgjsG1155" transform="translate(447,558.5)"><path id="SvgjsPath1156" d="M0 4Q0 0 4 0L96 0Q100 0 100 4L100 46Q100 50 96 50L4 50Q0 50 0 46Z " stroke="rgba(50,50,50,1)" stroke-width="2" fill-opacity="1" fill="#ffffff"></path><g id="SvgjsG1157"><text id="SvgjsText1158" font-family="微软雅黑" text-anchor="middle" font-size="16px" width="80px" fill="#323232" font-weight="400" align="middle" lineHeight="125%" font-style="" opacity="1" y="11" transform="rotate(0)"><tspan id="SvgjsTspan1159" dy="20" x="50"><tspan id="SvgjsTspan1160" style="text-decoration:;">切换课程</tspan></tspan></text></g></g><g id="SvgjsG1161"><path id="SvgjsPath1162" d="M417.9006280252128 478.93459079626837C443 477.5 417 584.5 446.0753282686652 583.119234732059 " stroke="#323232" stroke-width="2" fill="none"></path></g><g id="SvgjsG1163" transform="translate(323,165)"><path id="SvgjsPath1164" d="M0 4Q0 0 4 0L96 0Q100 0 100 4L100 46Q100 50 96 50L4 50Q0 50 0 46Z " stroke="rgba(50,50,50,1)" stroke-width="2" fill-opacity="1" fill="#ffffff"></path><g id="SvgjsG1165"><text id="SvgjsText1166" font-family="微软雅黑" text-anchor="middle" font-size="16px" width="80px" fill="#323232" font-weight="400" align="middle" lineHeight="125%" font-style="" opacity="1" y="11" transform="rotate(0)"><tspan id="SvgjsTspan1167" dy="20" x="50"><tspan id="SvgjsTspan1168" style="text-decoration:;">交互学习</tspan></tspan></text></g></g><g id="SvgjsG1169" transform="translate(453,235)"><path id="SvgjsPath1170" d="M0 4Q0 0 4 0L96 0Q100 0 100 4L100 46Q100 50 96 50L4 50Q0 50 0 46Z " stroke="rgba(50,50,50,1)" stroke-width="2" fill-opacity="1" fill="#ffffff"></path><g id="SvgjsG1171"><text id="SvgjsText1172" font-family="微软雅黑" text-anchor="middle" font-size="16px" width="80px" fill="#323232" font-weight="400" align="middle" lineHeight="125%" font-style="" opacity="1" y="11" transform="rotate(0)"><tspan id="SvgjsTspan1173" dy="20" x="50"><tspan id="SvgjsTspan1174" style="text-decoration:;">树和图专题</tspan></tspan></text></g></g><g id="SvgjsG1175" transform="translate(453,165)"><path id="SvgjsPath1176" d="M0 4Q0 0 4 0L96 0Q100 0 100 4L100 46Q100 50 96 50L4 50Q0 50 0 46Z " stroke="rgba(50,50,50,1)" stroke-width="2" fill-opacity="1" fill="#ffffff"></path><g id="SvgjsG1177"><text id="SvgjsText1178" font-family="微软雅黑" text-anchor="middle" font-size="16px" width="80px" fill="#323232" font-weight="400" align="middle" lineHeight="125%" font-style="" opacity="1" y="11" transform="rotate(0)"><tspan id="SvgjsTspan1179" dy="20" x="50"><tspan id="SvgjsTspan1180" style="text-decoration:;">排序专题</tspan></tspan></text></g></g><g id="SvgjsG1181"><path id="SvgjsPath1182" d="M424 190C435 190 441 190 452 190 " stroke="#323232" stroke-width="2" fill="none"></path></g><g id="SvgjsG1183"><path id="SvgjsPath1184" d="M423.91100748817837 190.4123898113229C453.4630924234557 190 422.53690757654437 260 452.08899251182163 259.58761018867716 " stroke="#323232" stroke-width="2" fill="none"></path></g><g id="SvgjsG1185"><path id="SvgjsPath1186" d="M423.91100748817837 189.58761018867716C453.4630924234557 190 422.53690757654437 120 452.08899251182163 120.41238981132284 " stroke="#323232" stroke-width="2" fill="none"></path></g><g id="SvgjsG1187"><path id="SvgjsPath1188" d="M255.985389412242 352.32968351154C325.4616207591055 352.5 252.53837924089453 190 322.014610587758 190.17031648846006 " stroke="#323232" stroke-width="2" fill="none"></path></g><g id="SvgjsG1189" transform="translate(453,25)"><path id="SvgjsPath1190" d="M0 4Q0 0 4 0L96 0Q100 0 100 4L100 46Q100 50 96 50L4 50Q0 50 0 46Z " stroke="rgba(50,50,50,1)" stroke-width="2" fill-opacity="1" fill="#ffffff"></path><g id="SvgjsG1191"><text id="SvgjsText1192" font-family="微软雅黑" text-anchor="middle" font-size="16px" width="80px" fill="#323232" font-weight="400" align="middle" lineHeight="125%" font-style="" opacity="1" y="11" transform="rotate(0)"><tspan id="SvgjsTspan1193" dy="20" x="50"><tspan id="SvgjsTspan1194" style="text-decoration:;">自定义学习</tspan></tspan></text></g></g><g id="SvgjsG1195"><path id="SvgjsPath1196" d="M423.9622869009341 189.7279633842831C456 194 417 50 452.0648347833521 50.354211825849916 " stroke="#323232" stroke-width="2" fill="none"></path></g></svg>